<svg width="179" height="167" viewBox="0 0 179 167" fill="none" xmlns="http://www.w3.org/2000/svg">
<path d="M179 89.5C179 73.8538 174.898 58.481 167.104 44.9145C159.31 31.3479 148.095 20.0617 134.578 12.1812C121.062 4.30074 105.715 0.101354 90.0694 0.00181134C74.4236 -0.0977314 59.025 3.90605 45.4091 11.6139C31.7932 19.3218 20.4359 30.4644 12.4696 43.9307C4.50326 57.3969 0.206327 72.7163 0.00724529 88.3612C-0.191836 104.006 3.71389 119.43 11.335 133.094C18.9561 146.759 30.0262 158.187 43.4415 166.239L45.6202 162.609C32.8395 154.938 22.293 144.051 15.0324 131.032C7.7718 118.014 4.05082 103.32 4.24048 88.4151C4.43015 73.5102 8.52383 58.9155 16.1133 46.0862C23.7028 33.2569 34.5229 22.6414 47.4947 15.2981C60.4665 7.95486 75.1367 4.14047 90.0425 4.23531C104.948 4.33014 119.569 8.33089 132.446 15.8386C145.323 23.3463 156.007 34.0987 163.433 47.0235C170.859 59.9483 174.766 74.5939 174.766 89.5H179Z" fill="#FCD535"/>
</svg>
