<svg width="321" height="114" viewBox="0 0 321 114" fill="none" xmlns="http://www.w3.org/2000/svg">
<path d="M91.96 40.1259L80.6469 44.9091C79.7648 42.0303 78.574 39.3951 77.0744 37.0035C75.6189 34.6119 73.8547 32.5746 71.7817 30.8916C69.7529 29.1643 67.4373 27.8357 64.8351 26.9056C62.2329 25.9312 59.3881 25.4441 56.3007 25.4441C52.9928 25.4441 49.9495 25.9977 47.1709 27.1049C44.4363 28.1678 41.9664 29.6515 39.7611 31.5559C37.6 33.4604 35.7034 35.6748 34.0715 38.1993C32.4396 40.7238 31.0723 43.4254 29.9697 46.3042C28.8671 49.1387 28.0511 52.0839 27.5218 55.1399C26.9926 58.1958 26.7279 61.1853 26.7279 64.1084C26.7279 68.7587 27.2572 73.3869 28.3157 77.993C29.4184 82.5991 31.1385 86.7401 33.4761 90.4161C35.8578 94.0921 38.9231 97.0816 42.6721 99.3846C46.4211 101.643 50.9639 102.773 56.3007 102.773C59.1235 102.773 61.7918 102.308 64.3059 101.378C66.8199 100.403 69.0913 99.0967 71.1202 97.458C73.1931 95.7751 75.0014 93.8042 76.5451 91.5455C78.0888 89.2867 79.3238 86.8508 80.25 84.2378L91.6954 88.8217C90.0194 93.0291 87.7259 96.7273 84.8149 99.9161C81.904 103.061 78.574 105.674 74.825 107.755C71.1202 109.837 67.1286 111.387 62.8504 112.406C58.6162 113.469 54.338 114 50.0157 114C45.3405 114 40.8417 113.424 36.5194 112.273C32.2411 111.121 28.2496 109.483 24.5447 107.357C20.8399 105.231 17.4658 102.662 14.4225 99.6504C11.4233 96.6387 8.84316 93.2949 6.68199 89.6189C4.56492 85.9429 2.91096 81.9569 1.72012 77.6608C0.573372 73.3205 0 68.803 0 64.1084C0 59.4138 0.573372 54.9184 1.72012 50.6224C2.91096 46.2821 4.56492 42.2739 6.68199 38.5979C8.84316 34.8776 11.4233 31.5117 14.4225 28.5C17.4658 25.4883 20.8399 22.9196 24.5447 20.7937C28.2496 18.6678 32.2411 17.0291 36.5194 15.8776C40.8417 14.7261 45.3405 14.1503 50.0157 14.1503C54.5144 14.1503 58.9029 14.6818 63.1812 15.7448C67.5035 16.8077 71.5171 18.4242 75.222 20.5944C78.9268 22.7203 82.2127 25.4219 85.0796 28.6993C87.9905 31.9324 90.284 35.7413 91.96 40.1259Z" fill="#FCD535"/>
<path d="M128.215 112.073H105.853V0H114.454L128.215 23.3182V112.073Z" fill="#FCD535"/>
<path d="M142.968 79.2552C142.968 75.7564 143.255 72.1247 143.828 68.3601C144.446 64.5956 145.306 60.831 146.408 57.0664C147.555 53.3019 148.922 49.5816 150.51 45.9056C152.098 42.2296 153.884 38.7086 155.869 35.3427H172.21C171.107 38.6643 170.115 42.141 169.233 45.7727C168.395 49.3601 167.667 52.9697 167.05 56.6014C166.476 60.1888 166.013 63.7098 165.66 67.1643C165.352 70.6189 165.197 73.8298 165.197 76.7972C165.197 78.5245 165.263 80.3846 165.396 82.3776C165.572 84.3263 165.859 86.2972 166.256 88.2902C166.653 90.2389 167.204 92.1212 167.91 93.9371C168.66 95.7529 169.608 97.3695 170.755 98.7867C171.901 100.16 173.291 101.267 174.923 102.108C176.599 102.906 178.561 103.304 180.811 103.304C183.016 103.304 184.979 102.817 186.699 101.843C188.463 100.824 190.007 99.5175 191.33 97.9231C192.653 96.2844 193.778 94.4242 194.704 92.3427C195.63 90.2611 196.38 88.1352 196.953 85.965C197.571 83.7506 198.012 81.6026 198.276 79.521C198.585 77.3951 198.739 75.4907 198.739 73.8077V35.3427H221.101V112.073H212.5L202.246 94.2028C200.967 97.1702 199.401 99.8718 197.549 102.308C195.74 104.699 193.667 106.759 191.33 108.486C188.992 110.213 186.39 111.542 183.523 112.472C180.7 113.402 177.635 113.867 174.327 113.867C169.034 113.867 164.425 113.004 160.5 111.276C156.575 109.549 153.311 107.157 150.709 104.101C148.106 101.045 146.166 97.4138 144.887 93.2063C143.608 88.9545 142.968 84.3042 142.968 79.2552Z" fill="#FCD535"/>
<path d="M321 73.8077C321 79.3881 320.162 84.6142 318.486 89.486C316.81 94.3578 314.384 98.6096 311.209 102.241C308.033 105.829 304.152 108.663 299.565 110.745C294.978 112.826 289.773 113.867 283.951 113.867C280.996 113.867 278.174 113.424 275.483 112.538C272.837 111.653 270.389 110.413 268.14 108.818C265.934 107.179 263.972 105.231 262.251 102.972C260.575 100.713 259.252 98.1888 258.282 95.3986L248.358 112.073H239.758V7.10839H262.119V44.5105C264.765 40.8345 267.941 38.1329 271.646 36.4056C275.395 34.6783 279.497 33.8147 283.951 33.8147C289.773 33.8147 294.978 34.8555 299.565 36.9371C304.152 39.0187 308.033 41.8531 311.209 45.4406C314.384 49.028 316.81 53.2576 318.486 58.1294C320.162 63.0012 321 68.2273 321 73.8077ZM298.308 73.8077C298.308 71.859 298.197 69.7995 297.977 67.6294C297.801 65.4149 297.47 63.2226 296.985 61.0524C296.499 58.8823 295.816 56.8007 294.934 54.8077C294.096 52.8147 293.015 51.0653 291.692 49.5594C290.369 48.0093 288.781 46.7914 286.928 45.9056C285.076 44.9755 282.893 44.5105 280.379 44.5105C278.085 44.5105 276.034 44.9977 274.226 45.972C272.462 46.9021 270.896 48.1643 269.529 49.7587C268.206 51.3531 267.081 53.169 266.155 55.2063C265.229 57.2436 264.479 59.3473 263.905 61.5175C263.332 63.6876 262.913 65.8357 262.648 67.9615C262.384 70.0874 262.251 72.0361 262.251 73.8077C262.251 75.8007 262.34 77.9044 262.516 80.1189C262.737 82.3333 263.089 84.5478 263.575 86.7622C264.06 88.9324 264.721 91.014 265.559 93.007C266.441 94.9557 267.544 96.7051 268.867 98.2552C270.235 99.7611 271.844 100.957 273.697 101.843C275.593 102.728 277.821 103.171 280.379 103.171C282.849 103.171 285.01 102.728 286.862 101.843C288.759 100.913 290.369 99.6946 291.692 98.1888C293.015 96.6387 294.096 94.8671 294.934 92.8741C295.816 90.8368 296.499 88.7331 296.985 86.5629C297.47 84.3928 297.801 82.2226 297.977 80.0525C298.197 77.838 298.308 75.7564 298.308 73.8077Z" fill="#FCD535"/>
</svg>
