<svg width="154" height="155" viewBox="0 0 154 155" fill="none" xmlns="http://www.w3.org/2000/svg">
<path d="M38.7383 10.537C41.5012 8.64038 43.5012 7.14038 46.3058 6.74219L52.8003 21.693C50.7587 22.5799 48.7673 23.5785 46.8354 24.6842L38.7383 10.537Z" fill="white"/>
<rect x="53" y="70.6401" width="16" height="68" fill="#FCD535"/>
<rect x="29" y="86.6401" width="16" height="45" fill="#FCD535"/>
<path d="M133.365 129.729C126.224 137.416 117.586 143.562 107.982 147.79C98.3786 152.017 88.0121 154.236 77.5195 154.311C67.0269 154.385 56.6298 152.314 46.967 148.224C37.3043 144.133 28.5798 138.11 21.3296 130.525C14.0795 122.94 8.45673 113.953 4.80682 104.115C1.15691 94.2774 -0.443087 83.7974 0.105127 73.3189C0.65334 62.8404 3.33819 52.5846 7.99472 43.1816C12.6513 33.7785 19.1812 25.4269 27.1832 18.6396L37.7271 31.0707C31.4196 36.4206 26.2726 43.0037 22.6021 50.4154C18.9317 57.8271 16.8155 65.9111 16.3833 74.1705C15.9512 82.43 17.2124 90.6907 20.0893 98.4449C22.9663 106.199 27.3983 113.283 33.1131 119.262C38.8279 125.241 45.7048 129.988 53.3213 133.213C60.9378 136.437 69.133 138.069 77.4036 138.011C85.6742 137.952 93.8454 136.203 101.415 132.871C108.985 129.539 115.794 124.694 121.423 118.634L133.365 129.729Z" fill="white"/>
<path d="M22.5469 22.9131C27.7878 17.6721 33.4872 13.1742 40.0022 9.64014L48.0455 24.0098C42.9102 26.7954 38.2041 30.3082 34.073 34.4392L22.5469 22.9131Z" fill="white"/>
<path d="M53.1926 1.77441L58.112 6.56001L77.4954 25.9452L86.9998 34.6399L75.9998 45.6399L66.9527 36.4609L44.3594 13.8656L40 9.64005C44.1415 6.62269 48.5884 4.0232 53.1926 1.77441Z" fill="#FCD535"/>
<path d="M141.668 12.1207L130.599 23.1898L91.8871 61.9041V125.109L91.2986 141.53L77 143.871V55.7331L77.166 55.567L122.076 10.6817L132.73 0C136.053 3.77481 139.044 7.83018 141.668 12.1207Z" fill="#FCD535"/>
<path d="M95.956 150.275C86.2475 153.089 76.6616 154.343 66.6152 153.227C56.5688 152.112 46.854 148.015 37.9992 143.14L45.8474 129.874C52.827 133.717 60.4951 136.147 68.414 137.027C76.3329 137.906 88.3939 137.241 96.0465 135.023L95.956 150.275Z" fill="white"/>
<g filter="url(#filter0_d_393_79)">
<path d="M36.5 107.64L49 95.1401L62.5 108.64L87.5 83.6401" stroke="white" stroke-width="4"/>
</g>
<defs>
<filter id="filter0_d_393_79" x="34.0859" y="82.2261" width="55.8281" height="34.2427" filterUnits="userSpaceOnUse" color-interpolation-filters="sRGB">
<feFlood flood-opacity="0" result="BackgroundImageFix"/>
<feColorMatrix in="SourceAlpha" type="matrix" values="0 0 0 0 0 0 0 0 0 0 0 0 0 0 0 0 0 0 127 0" result="hardAlpha"/>
<feOffset dy="4"/>
<feGaussianBlur stdDeviation="0.5"/>
<feComposite in2="hardAlpha" operator="out"/>
<feColorMatrix type="matrix" values="0 0 0 0 0 0 0 0 0 0 0 0 0 0 0 0 0 0 0.19 0"/>
<feBlend mode="normal" in2="BackgroundImageFix" result="effect1_dropShadow_393_79"/>
<feBlend mode="normal" in="SourceGraphic" in2="effect1_dropShadow_393_79" result="shape"/>
</filter>
</defs>
</svg>
