<svg width="347" height="114" viewBox="0 0 347 114" fill="none" xmlns="http://www.w3.org/2000/svg">
<path d="M89.0017 16.4282L57.9112 71.965V112.204H31.4242V73.4282L0 16.4282H27.0208L47.9035 64.5823L70.3207 16.4282H89.0017Z" fill="white"/>
<path d="M121.827 16.8273C121.827 18.5123 121.493 20.1085 120.826 21.6161C120.203 23.1237 119.336 24.4317 118.224 25.5403C117.112 26.6488 115.8 27.5356 114.288 28.2007C112.776 28.8215 111.174 29.1319 109.484 29.1319C107.794 29.1319 106.193 28.8215 104.68 28.2007C103.213 27.5356 101.923 26.6488 100.811 25.5403C99.6988 24.4317 98.8093 23.1237 98.1421 21.6161C97.5194 20.1085 97.208 18.5123 97.208 16.8273C97.208 15.1424 97.5194 13.5683 98.1421 12.105C98.8093 10.5974 99.6988 9.28938 100.811 8.18086C101.923 7.07235 103.213 6.2077 104.68 5.58693C106.193 4.92182 107.794 4.58926 109.484 4.58926C111.174 4.58926 112.776 4.92182 114.288 5.58693C115.8 6.2077 117.112 7.07235 118.224 8.18086C119.336 9.28938 120.203 10.5974 120.826 12.105C121.493 13.5683 121.827 15.1424 121.827 16.8273ZM120.826 112.204H98.2088V35.4504H120.826V112.204Z" fill="white"/>
<path d="M158.322 75.7561C161.079 76.3769 163.837 76.8646 166.595 77.2194C169.352 77.5741 172.132 77.7515 174.934 77.7515C177.87 77.7515 180.583 77.4854 183.074 76.9533C185.609 76.3769 187.789 75.4457 189.612 74.1599C191.48 72.8296 192.948 71.0782 194.016 68.9055C195.083 66.7328 195.617 64.028 195.617 60.7911C195.617 58.175 195.261 55.7806 194.55 53.6079C193.838 51.4352 192.77 49.5729 191.347 48.021C189.968 46.4691 188.256 45.2719 186.21 44.4294C184.164 43.5426 181.784 43.0992 179.071 43.0992C176.536 43.0992 174.245 43.5648 172.199 44.4959C170.197 45.4271 168.418 46.6908 166.862 48.287C165.349 49.839 164.037 51.6569 162.925 53.741C161.858 55.825 160.968 57.9977 160.257 60.259C159.545 62.5204 159.033 64.804 158.722 67.1097C158.411 69.4154 158.255 71.5881 158.255 73.6278C158.255 73.9825 158.255 74.3372 158.255 74.6919C158.255 75.0467 158.277 75.4014 158.322 75.7561ZM213.898 60.5916C213.898 63.7398 213.386 66.5554 212.363 69.0385C211.34 71.4772 209.939 73.6278 208.16 75.4901C206.425 77.3524 204.402 78.9265 202.089 80.2124C199.776 81.4983 197.307 82.5624 194.683 83.4049C192.059 84.203 189.346 84.7795 186.543 85.1342C183.786 85.4889 181.095 85.6663 178.47 85.6663C175.135 85.6663 171.843 85.4446 168.596 85.0012C165.349 84.5134 162.147 83.7596 158.989 82.7398C159.478 85.6663 160.257 88.4597 161.324 91.1202C162.391 93.7363 163.815 96.042 165.594 98.0373C167.373 99.9883 169.553 101.54 172.132 102.693C174.757 103.846 177.848 104.422 181.406 104.422C183.763 104.422 186.01 104.068 188.145 103.358C190.28 102.649 192.237 101.651 194.016 100.365C195.795 99.0793 197.352 97.5496 198.686 95.776C200.065 94.0023 201.177 92.0292 202.022 89.8565L211.763 93.4481C210.295 96.951 208.271 99.9883 205.691 102.56C203.156 105.088 200.265 107.194 197.018 108.879C193.816 110.519 190.391 111.739 186.744 112.537C183.141 113.335 179.56 113.734 176.002 113.734C170.131 113.734 164.704 112.758 159.723 110.807C154.741 108.812 150.449 106.041 146.846 102.494C143.243 98.9463 140.419 94.7118 138.373 89.79C136.327 84.8681 135.304 79.4808 135.304 73.6278C135.304 67.7748 136.327 62.3874 138.373 57.4656C140.419 52.5438 143.243 48.3092 146.846 44.762C150.449 41.2147 154.741 38.4656 159.723 36.5146C164.704 34.5193 170.131 33.5216 176.002 33.5216C178.849 33.5216 181.762 33.7211 184.742 34.1202C187.722 34.5193 190.613 35.1622 193.415 36.049C196.217 36.8915 198.864 38 201.355 39.3746C203.846 40.7491 206.003 42.4562 207.826 44.4959C209.694 46.4912 211.162 48.8191 212.23 51.4796C213.342 54.14 213.898 57.1774 213.898 60.5916Z" fill="white"/>
<path d="M250.526 112.204H227.975V0H236.649L250.526 23.3454V112.204Z" fill="white"/>
<path d="M347 112.204H338.327L328.319 95.5099C327.34 98.3034 325.984 100.831 324.249 103.092C322.559 105.354 320.58 107.305 318.311 108.945C316.087 110.541 313.619 111.783 310.906 112.67C308.237 113.557 305.413 114 302.432 114C296.561 114 291.313 112.958 286.687 110.874C282.061 108.79 278.147 105.952 274.945 102.361C271.742 98.7246 269.296 94.4679 267.606 89.5904C265.915 84.713 265.07 79.4808 265.07 73.8938C265.07 68.3069 265.915 63.0747 267.606 58.1972C269.296 53.3197 271.742 49.0852 274.945 45.4936C278.147 41.902 282.061 39.0642 286.687 36.9802C291.313 34.8961 296.561 33.8541 302.432 33.8541C306.925 33.8541 311.039 34.7188 314.775 36.4481C318.556 38.1774 321.781 40.8821 324.449 44.5624V7.11669H347V112.204ZM324.316 73.8938C324.316 72.1202 324.182 70.1692 323.916 68.0408C323.649 65.9125 323.226 63.762 322.648 61.5893C322.07 59.4166 321.314 57.3104 320.38 55.2707C319.445 53.231 318.289 51.4131 316.91 49.8168C315.576 48.2205 313.997 46.9568 312.173 46.0257C310.394 45.0502 308.348 44.5624 306.035 44.5624C303.5 44.5624 301.298 45.028 299.43 45.9592C297.562 46.846 295.961 48.0653 294.626 49.6173C293.292 51.1249 292.18 52.8763 291.291 54.8716C290.445 56.867 289.778 58.951 289.289 61.1237C288.8 63.2964 288.444 65.4912 288.221 67.7083C288.044 69.881 287.955 71.9428 287.955 73.8938C287.955 75.8448 288.044 77.9288 288.221 80.1459C288.444 82.3186 288.8 84.4912 289.289 86.6639C289.778 88.8366 290.445 90.9428 291.291 92.9825C292.18 94.9778 293.292 96.7515 294.626 98.3034C295.961 99.811 297.562 101.03 299.43 101.961C301.298 102.848 303.5 103.292 306.035 103.292C308.57 103.292 310.794 102.848 312.707 101.961C314.62 101.075 316.243 99.8775 317.577 98.3699C318.956 96.818 320.068 95.0665 320.913 93.1155C321.803 91.1202 322.492 89.0362 322.982 86.8635C323.471 84.6464 323.804 82.4294 323.982 80.2124C324.205 77.9953 324.316 75.8892 324.316 73.8938Z" fill="white"/>
</svg>
