<svg width="830" height="155" viewBox="0 0 830 155" fill="none" xmlns="http://www.w3.org/2000/svg">
<path d="M238.002 35.4297L206.911 90.9665V131.205H180.424V92.4297L149 35.4297H176.021L196.903 83.5838L219.321 35.4297H238.002Z" fill="white"/>
<path d="M270.827 35.8279C270.827 37.5129 270.493 39.1091 269.826 40.6167C269.203 42.1243 268.336 43.4323 267.224 44.5409C266.112 45.6494 264.8 46.5362 263.288 47.2013C261.776 47.8221 260.174 48.1325 258.484 48.1325C256.794 48.1325 255.193 47.8221 253.68 47.2013C252.213 46.5362 250.923 45.6494 249.811 44.5409C248.699 43.4323 247.809 42.1243 247.142 40.6167C246.519 39.1091 246.208 37.5129 246.208 35.8279C246.208 34.143 246.519 32.5689 247.142 31.1056C247.809 29.598 248.699 28.29 249.811 27.1814C250.923 26.0729 252.213 25.2083 253.68 24.5875C255.193 23.9224 256.794 23.5898 258.484 23.5898C260.174 23.5898 261.776 23.9224 263.288 24.5875C264.8 25.2083 266.112 26.0729 267.224 27.1814C268.336 28.29 269.203 29.598 269.826 31.1056C270.493 32.5689 270.827 34.143 270.827 35.8279ZM269.826 131.205H247.209V54.451H269.826V131.205Z" fill="white"/>
<path d="M307.322 94.7579C310.079 95.3787 312.837 95.8664 315.595 96.2212C318.352 96.5759 321.132 96.7533 323.934 96.7533C326.87 96.7533 329.583 96.4872 332.074 95.9551C334.609 95.3787 336.789 94.4475 338.612 93.1617C340.48 91.8314 341.948 90.08 343.016 87.9073C344.083 85.7346 344.617 83.0298 344.617 79.7929C344.617 77.1768 344.261 74.7824 343.55 72.6097C342.838 70.437 341.77 68.5747 340.347 67.0228C338.968 65.4709 337.256 64.2737 335.21 63.4312C333.164 62.5444 330.784 62.101 328.071 62.101C325.536 62.101 323.245 62.5666 321.199 63.4977C319.197 64.4289 317.418 65.6926 315.862 67.2888C314.349 68.8408 313.037 70.6587 311.925 72.7428C310.858 74.8268 309.968 76.9995 309.257 79.2608C308.545 81.5222 308.033 83.8058 307.722 86.1115C307.411 88.4172 307.255 90.5899 307.255 92.6296C307.255 92.9843 307.255 93.339 307.255 93.6937C307.255 94.0485 307.277 94.4032 307.322 94.7579ZM362.898 79.5934C362.898 82.7416 362.386 85.5572 361.363 88.0403C360.34 90.479 358.939 92.6296 357.16 94.4919C355.425 96.3542 353.402 97.9283 351.089 99.2142C348.776 100.5 346.307 101.564 343.683 102.407C341.059 103.205 338.346 103.781 335.543 104.136C332.786 104.491 330.095 104.668 327.47 104.668C324.135 104.668 320.843 104.446 317.596 104.003C314.349 103.515 311.147 102.761 307.989 101.742C308.478 104.668 309.257 107.462 310.324 110.122C311.391 112.738 312.815 115.044 314.594 117.039C316.373 118.99 318.553 120.542 321.132 121.695C323.757 122.848 326.848 123.424 330.406 123.424C332.763 123.424 335.01 123.07 337.145 122.36C339.28 121.651 341.237 120.653 343.016 119.367C344.795 118.081 346.352 116.551 347.686 114.778C349.065 113.004 350.177 111.031 351.022 108.858L360.763 112.45C359.295 115.953 357.271 118.99 354.691 121.562C352.156 124.09 349.265 126.196 346.018 127.881C342.816 129.521 339.391 130.741 335.744 131.539C332.141 132.337 328.56 132.736 325.002 132.736C319.131 132.736 313.704 131.76 308.723 129.809C303.741 127.814 299.449 125.043 295.846 121.496C292.243 117.948 289.419 113.714 287.373 108.792C285.327 103.87 284.304 98.4826 284.304 92.6296C284.304 86.7766 285.327 81.3892 287.373 76.4674C289.419 71.5456 292.243 67.311 295.846 63.7638C299.449 60.2165 303.741 57.4674 308.723 55.5164C313.704 53.5211 319.131 52.5234 325.002 52.5234C327.849 52.5234 330.762 52.7229 333.742 53.122C336.722 53.5211 339.613 54.164 342.415 55.0508C345.217 55.8933 347.864 57.0018 350.355 58.3764C352.846 59.7509 355.003 61.458 356.826 63.4977C358.694 65.493 360.162 67.8209 361.23 70.4814C362.342 73.1418 362.898 76.1792 362.898 79.5934Z" fill="white"/>
<path d="M399.526 131.204H376.975V19H385.649L399.526 42.3454V131.204Z" fill="white"/>
<path d="M496 131.204H487.327L477.319 114.51C476.34 117.304 474.984 119.831 473.249 122.092C471.559 124.354 469.58 126.305 467.311 127.945C465.087 129.541 462.619 130.783 459.906 131.67C457.237 132.557 454.413 133 451.432 133C445.561 133 440.313 131.958 435.687 129.874C431.061 127.79 427.147 124.952 423.945 121.361C420.742 117.725 418.296 113.468 416.606 108.591C414.915 103.713 414.07 98.4813 414.07 92.8943C414.07 87.3074 414.915 82.0752 416.606 77.1977C418.296 72.3202 420.742 68.0857 423.945 64.4941C427.147 60.9025 431.061 58.0647 435.687 55.9807C440.313 53.8966 445.561 52.8546 451.432 52.8546C455.925 52.8546 460.039 53.7193 463.775 55.4486C467.556 57.1779 470.781 59.8826 473.449 63.5629V26.1172H496V131.204ZM473.316 92.8943C473.316 91.1207 473.182 89.1697 472.916 87.0413C472.649 84.913 472.226 82.7625 471.648 80.5898C471.07 78.4171 470.314 76.3109 469.38 74.2712C468.445 72.2315 467.289 70.4136 465.91 68.8173C464.576 67.221 462.997 65.9573 461.173 65.0262C459.394 64.0507 457.348 63.5629 455.035 63.5629C452.5 63.5629 450.298 64.0285 448.43 64.9597C446.562 65.8465 444.961 67.0658 443.626 68.6178C442.292 70.1254 441.18 71.8768 440.291 73.8721C439.445 75.8675 438.778 77.9515 438.289 80.1242C437.8 82.2969 437.444 84.4917 437.221 86.7088C437.044 88.8815 436.955 90.9433 436.955 92.8943C436.955 94.8453 437.044 96.9293 437.221 99.1464C437.444 101.319 437.8 103.492 438.289 105.664C438.778 107.837 439.445 109.943 440.291 111.983C441.18 113.978 442.292 115.752 443.626 117.304C444.961 118.811 446.562 120.03 448.43 120.961C450.298 121.848 452.5 122.292 455.035 122.292C457.57 122.292 459.794 121.848 461.707 120.961C463.62 120.075 465.243 118.878 466.577 117.37C467.956 115.818 469.068 114.067 469.913 112.116C470.803 110.121 471.492 108.037 471.982 105.864C472.471 103.647 472.804 101.43 472.982 99.2129C473.205 96.9958 473.316 94.8897 473.316 92.8943Z" fill="white"/>
<path d="M600.96 60.124L589.647 64.9072C588.765 62.0284 587.574 59.3932 586.074 57.0016C584.619 54.61 582.855 52.5727 580.782 50.8897C578.753 49.1624 576.437 47.8338 573.835 46.9037C571.233 45.9293 568.388 45.4422 565.301 45.4422C561.993 45.4422 558.949 45.9958 556.171 47.103C553.436 48.1659 550.966 49.6496 548.761 51.554C546.6 53.4585 544.703 55.6729 543.071 58.1974C541.44 60.7219 540.072 63.4235 538.97 66.3023C537.867 69.1368 537.051 72.082 536.522 75.138C535.993 78.1939 535.728 81.1834 535.728 84.1065C535.728 88.7568 536.257 93.385 537.316 97.9911C538.418 102.597 540.139 106.738 542.476 110.414C544.858 114.09 547.923 117.08 551.672 119.383C555.421 121.641 559.964 122.771 565.301 122.771C568.124 122.771 570.792 122.306 573.306 121.376C575.82 120.401 578.091 119.095 580.12 117.456C582.193 115.773 584.001 113.802 585.545 111.544C587.089 109.285 588.324 106.849 589.25 104.236L600.695 108.82C599.019 113.027 596.726 116.725 593.815 119.914C590.904 123.059 587.574 125.672 583.825 127.753C580.12 129.835 576.129 131.385 571.85 132.404C567.616 133.467 563.338 133.998 559.016 133.998C554.341 133.998 549.842 133.422 545.519 132.271C541.241 131.119 537.25 129.481 533.545 127.355C529.84 125.229 526.466 122.66 523.422 119.649C520.423 116.637 517.843 113.293 515.682 109.617C513.565 105.941 511.911 101.955 510.72 97.6589C509.573 93.3186 509 88.8011 509 84.1065C509 79.4119 509.573 74.9165 510.72 70.6205C511.911 66.2802 513.565 62.272 515.682 58.596C517.843 54.8757 520.423 51.5098 523.422 48.4981C526.466 45.4864 529.84 42.9177 533.545 40.7918C537.25 38.6659 541.241 37.0272 545.519 35.8757C549.842 34.7242 554.341 34.1484 559.016 34.1484C563.514 34.1484 567.903 34.6799 572.181 35.7429C576.503 36.8058 580.517 38.4223 584.222 40.5925C587.927 42.7184 591.213 45.42 594.08 48.6974C596.99 51.9305 599.284 55.7394 600.96 60.124Z" fill="#FCD535"/>
<path d="M637.215 132.073H614.853V20H623.454L637.215 43.3182V132.073Z" fill="#FCD535"/>
<path d="M651.968 99.2563C651.968 95.7575 652.255 92.1257 652.828 88.3611C653.446 84.5966 654.306 80.832 655.408 77.0674C656.555 73.3029 657.922 69.5827 659.51 65.9067C661.098 62.2307 662.884 58.7097 664.869 55.3438H681.21C680.107 58.6653 679.115 62.1421 678.233 65.7738C677.395 69.3612 676.667 72.9707 676.05 76.6024C675.476 80.1898 675.013 83.7108 674.66 87.1653C674.352 90.6199 674.197 93.8309 674.197 96.7983C674.197 98.5256 674.263 100.386 674.396 102.379C674.572 104.327 674.859 106.298 675.256 108.291C675.653 110.24 676.204 112.122 676.91 113.938C677.66 115.754 678.608 117.371 679.755 118.788C680.901 120.161 682.291 121.268 683.923 122.109C685.599 122.907 687.561 123.305 689.811 123.305C692.016 123.305 693.979 122.818 695.699 121.844C697.463 120.825 699.007 119.519 700.33 117.924C701.653 116.285 702.778 114.425 703.704 112.344C704.63 110.262 705.38 108.136 705.953 105.966C706.571 103.752 707.012 101.604 707.276 99.5221C707.585 97.3962 707.739 95.4918 707.739 93.8088V55.3438H730.101V132.074H721.5L711.246 114.204C709.967 117.171 708.401 119.873 706.549 122.309C704.74 124.7 702.667 126.76 700.33 128.487C697.992 130.214 695.39 131.543 692.523 132.473C689.7 133.403 686.635 133.868 683.327 133.868C678.034 133.868 673.425 133.005 669.5 131.277C665.575 129.55 662.311 127.158 659.709 124.102C657.106 121.046 655.166 117.415 653.887 113.207C652.608 108.956 651.968 104.305 651.968 99.2563Z" fill="#FCD535"/>
<path d="M830 93.8087C830 99.3891 829.162 104.615 827.486 109.487C825.81 114.359 823.384 118.611 820.209 122.242C817.033 125.83 813.152 128.664 808.565 130.746C803.978 132.827 798.773 133.868 792.951 133.868C789.996 133.868 787.174 133.425 784.483 132.539C781.837 131.654 779.389 130.414 777.14 128.819C774.934 127.18 772.972 125.232 771.251 122.973C769.575 120.714 768.252 118.19 767.282 115.4L757.358 132.074H748.758V27.1094H771.119V64.5115C773.765 60.8355 776.941 58.1339 780.646 56.4066C784.395 54.6793 788.497 53.8157 792.951 53.8157C798.773 53.8157 803.978 54.8565 808.565 56.9381C813.152 59.0197 817.033 61.8541 820.209 65.4416C823.384 69.029 825.81 73.2586 827.486 78.1304C829.162 83.0022 830 88.2283 830 93.8087ZM807.308 93.8087C807.308 91.86 807.197 89.8005 806.977 87.6304C806.801 85.4159 806.47 83.2236 805.985 81.0534C805.499 78.8833 804.816 76.8017 803.934 74.8087C803.096 72.8157 802.015 71.0663 800.692 69.5604C799.369 68.0103 797.781 66.7924 795.928 65.9066C794.076 64.9765 791.893 64.5115 789.379 64.5115C787.085 64.5115 785.034 64.9987 783.226 65.973C781.462 66.9031 779.896 68.1653 778.529 69.7597C777.206 71.3541 776.081 73.17 775.155 75.2073C774.229 77.2446 773.479 79.3483 772.905 81.5185C772.332 83.6886 771.913 85.8367 771.648 87.9625C771.384 90.0884 771.251 92.0371 771.251 93.8087C771.251 95.8017 771.34 97.9054 771.516 100.12C771.737 102.334 772.089 104.549 772.575 106.763C773.06 108.933 773.721 111.015 774.559 113.008C775.441 114.957 776.544 116.706 777.867 118.256C779.235 119.762 780.844 120.958 782.697 121.844C784.593 122.729 786.821 123.172 789.379 123.172C791.849 123.172 794.01 122.729 795.862 121.844C797.759 120.914 799.369 119.696 800.692 118.19C802.015 116.64 803.096 114.868 803.934 112.875C804.816 110.838 805.499 108.734 805.985 106.564C806.47 104.394 806.801 102.224 806.977 100.053C807.197 97.839 807.308 95.7574 807.308 93.8087Z" fill="#FCD535"/>
<path d="M38.7383 10.537C41.5012 8.64038 43.5012 7.14038 46.3058 6.74219L52.8003 21.693C50.7587 22.5799 48.7673 23.5785 46.8354 24.6842L38.7383 10.537Z" fill="white"/>
<path d="M69 70.6406H53V138.641H69V70.6406Z" fill="#FCD535"/>
<path d="M45 86.6406H29V131.641H45V86.6406Z" fill="#FCD535"/>
<path d="M133.365 129.73C126.224 137.417 117.586 143.563 107.982 147.791C98.3786 152.018 88.0121 154.237 77.5195 154.312C67.0269 154.386 56.6298 152.315 46.967 148.225C37.3043 144.134 28.5798 138.111 21.3296 130.526C14.0795 122.941 8.45673 113.954 4.80682 104.116C1.15691 94.2784 -0.443083 83.7984 0.105131 73.3199C0.653344 62.8414 3.33819 52.5856 7.99472 43.1826C12.6513 33.7795 19.1812 25.4279 27.1832 18.6406L37.7271 31.0717C31.4196 36.4216 26.2726 43.0047 22.6021 50.4164C18.9317 57.8281 16.8155 65.9121 16.3833 74.1715C15.9512 82.431 17.2124 90.6917 20.0893 98.4459C22.9663 106.2 27.3983 113.284 33.1131 119.263C38.8279 125.242 45.7048 129.989 53.3213 133.214C60.9378 136.438 69.133 138.07 77.4036 138.012C85.6742 137.953 93.8454 136.204 101.415 132.872C108.985 129.54 115.794 124.695 121.423 118.635L133.365 129.73Z" fill="white"/>
<path d="M22.5469 22.9136C27.7878 17.6726 33.4872 13.1747 40.0022 9.64062L48.0455 24.0103C42.9102 26.7959 38.2041 30.3087 34.073 34.4397L22.5469 22.9136Z" fill="white"/>
<path d="M53.1926 1.77344L58.112 6.55904L77.4954 25.9442L86.9998 34.6389L75.9998 45.6389L66.9527 36.4599L44.3594 13.8646L40 9.63908C44.1415 6.62172 48.5884 4.02223 53.1926 1.77344Z" fill="#FCD535"/>
<path d="M141.668 12.1207L130.599 23.1898L91.8871 61.9041V125.109L91.2986 141.53L77 143.871V55.7331L77.166 55.567L122.076 10.6817L132.73 0C136.053 3.77481 139.044 7.83018 141.668 12.1207Z" fill="#FCD535"/>
<path d="M95.9558 150.276C86.2473 153.09 76.6614 154.344 66.615 153.228C56.5686 152.113 46.8538 148.016 37.999 143.141L45.8472 129.875C52.8268 133.718 60.4949 136.148 68.4138 137.028C76.3327 137.907 88.3937 137.242 96.0463 135.024L95.9558 150.276Z" fill="white"/>
<g filter="url(#filter0_i_501_53)">
<path d="M36.5 107.641L49 95.1406L62.5 108.641L87.5 83.6406" stroke="white" stroke-width="4"/>
</g>
<defs>
<filter id="filter0_i_501_53" x="35.0859" y="82.2266" width="53.8281" height="30.2422" filterUnits="userSpaceOnUse" color-interpolation-filters="sRGB">
<feFlood flood-opacity="0" result="BackgroundImageFix"/>
<feBlend mode="normal" in="SourceGraphic" in2="BackgroundImageFix" result="shape"/>
<feColorMatrix in="SourceAlpha" type="matrix" values="0 0 0 0 0 0 0 0 0 0 0 0 0 0 0 0 0 0 127 0" result="hardAlpha"/>
<feOffset dy="4"/>
<feGaussianBlur stdDeviation="0.5"/>
<feComposite in2="hardAlpha" operator="arithmetic" k2="-1" k3="1"/>
<feColorMatrix type="matrix" values="0 0 0 0 0 0 0 0 0 0 0 0 0 0 0 0 0 0 0.19 0"/>
<feBlend mode="normal" in2="shape" result="effect1_innerShadow_501_53"/>
</filter>
</defs>
</svg>
