<?xml version="1.0" standalone="no"?>
<!DOCTYPE svg PUBLIC "-//W3C//DTD SVG 20010904//EN"
 "http://www.w3.org/TR/2001/REC-SVG-20010904/DTD/svg10.dtd">
<svg version="1.0" xmlns="http://www.w3.org/2000/svg"
 width="620.000000pt" height="620.000000pt" viewBox="0 0 620.000000 620.000000"
 preserveAspectRatio="xMidYMid meet">
<metadata>
Created by potrace 1.14, written by Peter Selinger 2001-2017
</metadata>
<g transform="translate(0.000000,620.000000) scale(0.100000,-0.100000)"
fill="#000000" stroke="none">
<path d="M4213 5084 l-1113 -1113 0 -711 0 -712 -161 -161 c-145 -147 -161
-159 -159 -132 1 17 2 275 1 575 l-1 545 -320 0 -320 0 0 -514 0 -514 -77 76
c-42 43 -81 77 -85 77 -4 0 -41 -35 -83 -77 l-75 -77 -2 195 -3 194 -315 0
-315 0 -5 -555 -5 -555 -40 58 c-22 32 -48 68 -58 79 -9 12 -17 25 -17 29 0 4
-6 14 -12 21 -7 8 -23 32 -36 54 -23 40 -148 285 -150 294 0 3 -6 19 -12 35
-7 17 -23 62 -37 100 -13 39 -27 77 -30 85 -3 8 -7 22 -9 30 -1 8 -7 31 -13
50 -23 85 -32 120 -45 190 -14 73 -18 96 -33 230 -10 86 -9 377 1 465 5 39 10
81 11 95 5 37 16 103 20 120 2 8 7 31 10 50 3 19 11 53 17 75 16 55 16 57 21
80 35 149 151 417 259 595 21 36 44 74 51 85 7 11 14 22 18 25 3 3 21 28 40
55 18 28 36 52 39 55 3 3 23 28 45 55 82 103 185 208 332 337 48 41 170 130
251 182 87 55 294 166 311 166 6 0 223 -212 481 -472 259 -259 473 -468 477
-464 5 3 104 102 221 219 l212 212 -44 40 c-24 22 -83 76 -132 120 -169 153
-202 186 -687 670 l-488 486 -113 -60 c-140 -73 -157 -83 -174 -98 -7 -7 -19
-13 -27 -13 -7 0 -15 -3 -17 -8 -3 -8 -216 -147 -318 -207 -56 -34 -204 -135
-250 -171 -202 -160 -428 -381 -552 -539 -4 -5 -28 -36 -53 -67 -25 -31 -45
-61 -45 -67 0 -6 -4 -11 -9 -11 -5 0 -12 -8 -15 -18 -4 -10 -14 -27 -24 -38
-19 -22 -17 -20 -95 -149 -52 -86 -140 -249 -146 -270 -2 -5 -11 -26 -21 -45
-10 -19 -18 -37 -17 -40 0 -3 -9 -26 -20 -51 -11 -25 -26 -63 -33 -85 -7 -21
-16 -43 -20 -49 -3 -5 -19 -53 -34 -105 -15 -52 -30 -102 -33 -110 -7 -18 -4
-5 -36 -150 -14 -63 -28 -128 -31 -145 -2 -16 -5 -30 -6 -30 -1 0 -3 -13 -5
-30 -2 -16 -7 -48 -10 -70 -15 -112 -20 -199 -20 -395 0 -192 4 -273 20 -390
2 -19 7 -53 10 -75 5 -43 11 -72 21 -120 4 -16 8 -39 10 -50 3 -23 8 -42 24
-105 6 -25 14 -56 17 -70 2 -14 7 -32 10 -40 4 -8 7 -17 7 -20 1 -3 5 -11 9
-18 5 -6 6 -12 4 -12 -10 0 83 -251 138 -373 189 -419 480 -801 840 -1102 33
-27 62 -53 63 -57 2 -5 8 -8 13 -8 9 0 83 -53 99 -70 17 -19 334 -213 350
-215 3 0 16 -7 30 -15 131 -74 434 -193 605 -236 6 -2 20 -5 33 -8 12 -3 30
-8 40 -10 48 -13 199 -43 212 -44 8 0 26 -3 40 -6 27 -7 88 -15 163 -22 26 -2
71 -6 100 -9 59 -6 361 -6 422 -1 124 11 187 18 245 27 36 6 76 12 90 14 50 7
257 56 335 80 44 13 83 24 88 24 4 0 21 8 37 16 17 9 30 13 30 9 0 -4 6 -2 13
3 6 5 35 18 62 28 102 37 310 132 344 157 13 10 27 18 32 18 4 0 54 28 109 62
56 35 109 68 119 73 89 53 306 230 431 352 l115 113 -67 62 c-66 63 -106 100
-298 278 -56 52 -106 95 -110 95 -5 0 -46 -36 -92 -80 -128 -122 -288 -247
-429 -333 -62 -38 -208 -116 -219 -117 -3 -1 -23 -10 -45 -22 -22 -11 -44 -22
-50 -23 -5 -1 -21 -7 -35 -13 -14 -5 -29 -11 -35 -13 -5 -2 -55 -19 -111 -38
-55 -19 -119 -37 -141 -39 l-42 -5 6 131 c2 73 6 739 7 1481 l1 1349 993 992
c545 546 992 998 992 1004 0 28 -237 356 -319 441 l-36 37 -1112 -1113z
m-1114 -3572 l2 -809 -133 4 c-73 2 -144 5 -158 6 l-25 2 -1 640 c-2 579 0
641 15 661 9 12 19 20 24 17 4 -2 7 0 7 6 0 12 59 71 71 71 6 0 7 5 4 10 -6 9
8 14 28 11 5 -1 6 3 2 8 -8 14 103 123 117 115 7 -4 8 -3 4 4 -5 9 26 56 41
61 0 1 2 -363 2 -807z m-1026 666 c-2 -5 2 -8 9 -8 15 0 48 -35 48 -50 0 -6 5
-10 11 -10 8 0 8 -4 0 -13 -6 -8 -8 -24 -6 -37 6 -32 7 -49 6 -310 0 -124 0
-232 1 -240 0 -26 -1 -471 -2 -550 -1 -41 -3 -76 -5 -78 -4 -4 -153 69 -248
122 l-68 38 2 540 1 541 80 78 80 79 47 -47 c26 -27 46 -51 44 -55z"/>
<path d="M3016 2198 c3 -5 10 -6 15 -3 13 9 11 12 -6 12 -8 0 -12 -4 -9 -9z"/>
<path d="M3037 2173 c-10 -9 -9 -23 1 -23 5 0 9 7 9 15 0 17 -1 18 -10 8z"/>
<path d="M2990 2159 c0 -5 5 -7 10 -4 6 3 10 8 10 11 0 2 -4 4 -10 4 -5 0 -10
-5 -10 -11z"/>
<path d="M2896 2078 c3 -5 10 -6 15 -3 13 9 11 12 -6 12 -8 0 -12 -4 -9 -9z"/>
<path d="M2950 2086 c0 -2 7 -7 16 -10 8 -3 12 -2 9 4 -6 10 -25 14 -25 6z"/>
<path d="M2913 2045 c0 -8 4 -12 9 -9 5 3 6 10 3 15 -9 13 -12 11 -12 -6z"/>
<path d="M2010 2139 c0 -5 5 -7 10 -4 6 3 10 8 10 11 0 2 -4 4 -10 4 -5 0 -10
-5 -10 -11z"/>
<path d="M2055 2140 c3 -5 8 -10 11 -10 2 0 4 5 4 10 0 6 -5 10 -11 10 -5 0
-7 -4 -4 -10z"/>
<path d="M1875 2120 c-3 -5 -1 -10 4 -10 6 0 11 5 11 10 0 6 -2 10 -4 10 -3 0
-8 -4 -11 -10z"/>
<path d="M2055 2100 c3 -5 8 -10 11 -10 2 0 4 5 4 10 0 6 -5 10 -11 10 -5 0
-7 -4 -4 -10z"/>
</g>
</svg>
